<?xml version="1.0" encoding="utf-8"?>
<svg version="1.1" xmlns:xlink="http://www.w3.org/1999/xlink" width="50px" height="50px" xmlns="http://www.w3.org/2000/svg">
  <defs>
    <mask fill="white" id="clip42">
      <path d="M 36.7127403846154 11.796875  C 36.7067307692308 18.2151442307693  31.4783653846154 23.4435096153845  25.0600961538461 23.4555288461538  C 18.6298076923076 23.4555288461538  13.3954326923076 18.2271634615385  13.3954326923076 11.796875  C 13.3954326923076 5.36658653846155  18.623798076923 0.138221153846189  25.0540865384615 0.138221153846189  C 31.484375 0.138221153846189  36.7127403846154 5.36658653846155  36.7127403846154 11.796875  Z M 34.2247596153846 11.7908653846155  C 34.2247596153846 6.74278846153845  30.1141826923076 2.63221153846155  25.0600961538461 2.63221153846155  C 20.0060096153846 2.63221153846155  15.8954326923076 6.74278846153845  15.8954326923076 11.796875  C 15.8954326923076 16.8509615384615  20.0060096153846 20.9615384615385  25.0600961538461 20.9615384615385  C 30.1021634615385 20.9495192307693  34.21875 16.8389423076923  34.2247596153846 11.7908653846155  Z M 47.8725961538461 48.5697115384615  C 47.7463942307692 48.6298076923077  47.608173076923 48.6538461538461  47.4639423076923 48.6538461538461  L 41.1057692307692 48.6538461538461  C 40.4146634615385 48.6538461538461  39.8557692307692 48.094951923077  39.8557692307692 47.4038461538462  C 39.8557692307692 46.7127403846155  40.4146634615385 46.1538461538462  41.1057692307692 46.1538461538462  L 47.1694711538461 46.1538461538462  C 47.2536057692308 46.1358173076923  47.34375 46.123798076923  47.4338942307692 46.123798076923  C 47.4038461538461 46.123798076923  47.4759615384615 46.0516826923077  47.5060096153846 45.889423076923  C 47.5240384615385 45.7872596153845  47.4939903846154 45.6430288461538  47.421875 45.5048076923077  L 36.5745192307692 25.78125  C 36.5504807692308 25.7391826923077  36.532451923077 25.7091346153845  36.5204326923076 25.6850961538462  C 29.4350961538461 30.3786057692307  20.6790865384615 30.3786057692307  13.6117788461539 25.6911057692307  C 13.5997596153846 25.703125  13.5877403846154 25.7211538461538  13.5817307692308 25.7451923076923  C 13.5697115384615 25.7692307692307  13.563701923077 25.7872596153845  13.5516826923076 25.811298076923  L 2.67427884615387 45.594951923077  C 2.63221153846149 45.6850961538462  2.60216346153851 45.8233173076923  2.62019230769238 45.9254807692307  C 2.64423076923077 46.0877403846155  2.71634615384613 46.1598557692307  2.734375 46.1658653846155  L 10.9194711538461 46.1538461538462  C 11.610576923077 46.1538461538462  12.1694711538461 46.7127403846155  12.1694711538461 47.4038461538461  C 12.1694711538461 48.094951923077  11.610576923077 48.6538461538461  10.9194711538461 48.6538461538461  L 2.68629807692304 48.6538461538461  C 1.43629807692304 48.6478365384615  0.378605769230774 47.6682692307693  0.162259615384642 46.328125  C 0.060096153846132 45.7091346153845  0.168269230769226 45.0600961538461  0.462740384615358 44.4471153846152  L 11.3461538461539 24.639423076923  C 11.688701923077 23.954326923077  12.2776442307692 23.4495192307693  12.96875 23.2572115384615  C 13.641826923077 23.0709134615385  14.344951923077 23.1850961538462  14.9399038461539 23.5757211538462  C 21.280048076923 27.8064903846155  28.8461538461539 27.8064903846155  35.1802884615385 23.5757211538462  C 35.7872596153846 23.155048076923  36.5564903846154 23.0408653846155  37.265625 23.2692307692307  C 37.920673076923 23.4795673076923  38.4615384615385 23.9603365384615  38.7860576923076 24.6213942307693  L 49.6274038461539 44.3509615384615  C 49.951923076923 45.0180288461539  50.0600961538461 45.673076923077  49.9579326923076 46.2860576923077  C 49.765625 47.469951923077  48.9182692307692 48.3713942307693  47.8725961538461 48.5697115384615  Z M 7.59014423076923 9.48317307692298  C 7.59014423076923 8.79807692307702  8.14903846153851 8.23918269230774  8.84014423076923 9  L 35.3064903846154 9  L 35.3064903846154 11  L 8.84014423076923 11  C 8.14903846153851 10.733173076923  7.59014423076923 10.1742788461538  7.59014423076923 9.48317307692298  Z M 33.9002403846154 38.2211538461538  C 33.9002403846154 39.6454326923077  32.782451923077 40.7992788461539  31.40625 40  L 20.7091346153846 40  C 19.3389423076924 40.7992788461539  18.2211538461539 39.6514423076923  18.2151442307692 38.2391826923077  L 18.1971153846154 34.8257211538462  C 18.1911057692308 34.1286057692307  18.467548076923 33.4555288461539  18.9483173076924 32.96875  C 19.4170673076924 32.5  20.0360576923076 32.235576923077  20.6911057692308 32  L 31.40625 32  C 32.782451923077 32.235576923077  33.9002403846154 33.389423076923  33.9002403846154 34.8076923076923  L 33.9002403846154 38.2211538461538  Z M 20.7091346153846 38.2271634615385  C 20.7091346153846 38.2692307692307  20.7211538461539 38.2932692307693  20.733173076923 38  L 31.3942307692308 38  C 31.3882211538461 38.2992788461538  31.40625 38.2752403846155  31.40625 38.2271634615385  L 31.40625 34.813701923077  C 31.40625 34.7536057692307  31.376201923077 34.7295673076923  31.376201923077 34  L 20.703125 34  C 20.7091346153846 34.7415865384615  20.6911057692308 34.765625  20.6911057692308 34.813701923077  L 20.7091346153846 38.2271634615385  Z M 37.0733173076924 47.295673076923  C 37.0733173076924 48.7079326923077  36.0396634615385 49.8677884615385  34.765625 49.8677884615385  L 17.3677884615385 49.8677884615385  C 16.0817307692308 49.8677884615385  15.0661057692308 48.7439903846152  15.0600961538461 47.313701923077  L 15.0240384615385 40.8954326923077  C 15.0180288461539 40.15625  15.2944711538461 39.453125  15.78125 38.9663461538462  C 16.201923076923 38.5396634615385  16.7548076923076 38.3052884615385  17.3317307692308 38  L 34.765625 38  C 36.0396634615385 38.3052884615385  37.0733173076924 39.4591346153845  37.0733173076924 40.8774038461538  L 37.0733173076924 47.295673076923  Z M 17.5540865384615 47.295673076923  C 17.5540865384615 47.3257211538462  17.5600961538461 47.3497596153845  17.5600961538461 47  L 34.5673076923076 47  C 34.5733173076924 47.34375  34.5733173076924 47.3197115384615  34.5733173076924 47.2896634615385  L 34.5733173076924 40.8774038461539  C 34.5733173076924 40.8473557692307  34.5673076923076 40.8233173076923  34.5673076923076 40  L 17.5240384615385 40  C 17.5180288461539 40.8233173076923  17.5180288461539 40.8473557692307  17.5180288461539 40.8774038461539  L 17.5540865384615 47.295673076923  Z " fill-rule="evenodd" />
    </mask>
  </defs>
  <g transform="matrix(1 0 0 1 -410 -127 )">
    <path d="M 36.7127403846154 11.796875  C 36.7067307692308 18.2151442307693  31.4783653846154 23.4435096153845  25.0600961538461 23.4555288461538  C 18.6298076923076 23.4555288461538  13.3954326923076 18.2271634615385  13.3954326923076 11.796875  C 13.3954326923076 5.36658653846155  18.623798076923 0.138221153846189  25.0540865384615 0.138221153846189  C 31.484375 0.138221153846189  36.7127403846154 5.36658653846155  36.7127403846154 11.796875  Z M 34.2247596153846 11.7908653846155  C 34.2247596153846 6.74278846153845  30.1141826923076 2.63221153846155  25.0600961538461 2.63221153846155  C 20.0060096153846 2.63221153846155  15.8954326923076 6.74278846153845  15.8954326923076 11.796875  C 15.8954326923076 16.8509615384615  20.0060096153846 20.9615384615385  25.0600961538461 20.9615384615385  C 30.1021634615385 20.9495192307693  34.21875 16.8389423076923  34.2247596153846 11.7908653846155  Z M 47.8725961538461 48.5697115384615  C 47.7463942307692 48.6298076923077  47.608173076923 48.6538461538461  47.4639423076923 48.6538461538461  L 41.1057692307692 48.6538461538461  C 40.4146634615385 48.6538461538461  39.8557692307692 48.094951923077  39.8557692307692 47.4038461538462  C 39.8557692307692 46.7127403846155  40.4146634615385 46.1538461538462  41.1057692307692 46.1538461538462  L 47.1694711538461 46.1538461538462  C 47.2536057692308 46.1358173076923  47.34375 46.123798076923  47.4338942307692 46.123798076923  C 47.4038461538461 46.123798076923  47.4759615384615 46.0516826923077  47.5060096153846 45.889423076923  C 47.5240384615385 45.7872596153845  47.4939903846154 45.6430288461538  47.421875 45.5048076923077  L 36.5745192307692 25.78125  C 36.5504807692308 25.7391826923077  36.532451923077 25.7091346153845  36.5204326923076 25.6850961538462  C 29.4350961538461 30.3786057692307  20.6790865384615 30.3786057692307  13.6117788461539 25.6911057692307  C 13.5997596153846 25.703125  13.5877403846154 25.7211538461538  13.5817307692308 25.7451923076923  C 13.5697115384615 25.7692307692307  13.563701923077 25.7872596153845  13.5516826923076 25.811298076923  L 2.67427884615387 45.594951923077  C 2.63221153846149 45.6850961538462  2.60216346153851 45.8233173076923  2.62019230769238 45.9254807692307  C 2.64423076923077 46.0877403846155  2.71634615384613 46.1598557692307  2.734375 46.1658653846155  L 10.9194711538461 46.1538461538462  C 11.610576923077 46.1538461538462  12.1694711538461 46.7127403846155  12.1694711538461 47.4038461538461  C 12.1694711538461 48.094951923077  11.610576923077 48.6538461538461  10.9194711538461 48.6538461538461  L 2.68629807692304 48.6538461538461  C 1.43629807692304 48.6478365384615  0.378605769230774 47.6682692307693  0.162259615384642 46.328125  C 0.060096153846132 45.7091346153845  0.168269230769226 45.0600961538461  0.462740384615358 44.4471153846152  L 11.3461538461539 24.639423076923  C 11.688701923077 23.954326923077  12.2776442307692 23.4495192307693  12.96875 23.2572115384615  C 13.641826923077 23.0709134615385  14.344951923077 23.1850961538462  14.9399038461539 23.5757211538462  C 21.280048076923 27.8064903846155  28.8461538461539 27.8064903846155  35.1802884615385 23.5757211538462  C 35.7872596153846 23.155048076923  36.5564903846154 23.0408653846155  37.265625 23.2692307692307  C 37.920673076923 23.4795673076923  38.4615384615385 23.9603365384615  38.7860576923076 24.6213942307693  L 49.6274038461539 44.3509615384615  C 49.951923076923 45.0180288461539  50.0600961538461 45.673076923077  49.9579326923076 46.2860576923077  C 49.765625 47.469951923077  48.9182692307692 48.3713942307693  47.8725961538461 48.5697115384615  Z M 7.59014423076923 9.48317307692298  C 7.59014423076923 8.79807692307702  8.14903846153851 8.23918269230774  8.84014423076923 9  L 35.3064903846154 9  L 35.3064903846154 11  L 8.84014423076923 11  C 8.14903846153851 10.733173076923  7.59014423076923 10.1742788461538  7.59014423076923 9.48317307692298  Z M 33.9002403846154 38.2211538461538  C 33.9002403846154 39.6454326923077  32.782451923077 40.7992788461539  31.40625 40  L 20.7091346153846 40  C 19.3389423076924 40.7992788461539  18.2211538461539 39.6514423076923  18.2151442307692 38.2391826923077  L 18.1971153846154 34.8257211538462  C 18.1911057692308 34.1286057692307  18.467548076923 33.4555288461539  18.9483173076924 32.96875  C 19.4170673076924 32.5  20.0360576923076 32.235576923077  20.6911057692308 32  L 31.40625 32  C 32.782451923077 32.235576923077  33.9002403846154 33.389423076923  33.9002403846154 34.8076923076923  L 33.9002403846154 38.2211538461538  Z M 20.7091346153846 38.2271634615385  C 20.7091346153846 38.2692307692307  20.7211538461539 38.2932692307693  20.733173076923 38  L 31.3942307692308 38  C 31.3882211538461 38.2992788461538  31.40625 38.2752403846155  31.40625 38.2271634615385  L 31.40625 34.813701923077  C 31.40625 34.7536057692307  31.376201923077 34.7295673076923  31.376201923077 34  L 20.703125 34  C 20.7091346153846 34.7415865384615  20.6911057692308 34.765625  20.6911057692308 34.813701923077  L 20.7091346153846 38.2271634615385  Z M 37.0733173076924 47.295673076923  C 37.0733173076924 48.7079326923077  36.0396634615385 49.8677884615385  34.765625 49.8677884615385  L 17.3677884615385 49.8677884615385  C 16.0817307692308 49.8677884615385  15.0661057692308 48.7439903846152  15.0600961538461 47.313701923077  L 15.0240384615385 40.8954326923077  C 15.0180288461539 40.15625  15.2944711538461 39.453125  15.78125 38.9663461538462  C 16.201923076923 38.5396634615385  16.7548076923076 38.3052884615385  17.3317307692308 38  L 34.765625 38  C 36.0396634615385 38.3052884615385  37.0733173076924 39.4591346153845  37.0733173076924 40.8774038461538  L 37.0733173076924 47.295673076923  Z M 17.5540865384615 47.295673076923  C 17.5540865384615 47.3257211538462  17.5600961538461 47.3497596153845  17.5600961538461 47  L 34.5673076923076 47  C 34.5733173076924 47.34375  34.5733173076924 47.3197115384615  34.5733173076924 47.2896634615385  L 34.5733173076924 40.8774038461539  C 34.5733173076924 40.8473557692307  34.5673076923076 40.8233173076923  34.5673076923076 40  L 17.5240384615385 40  C 17.5180288461539 40.8233173076923  17.5180288461539 40.8473557692307  17.5180288461539 40.8774038461539  L 17.5540865384615 47.295673076923  Z " fill-rule="nonzero" fill="#8da5eb" stroke="none" transform="matrix(1 0 0 1 410 127 )" />
    <path d="M 36.7127403846154 11.796875  C 36.7067307692308 18.2151442307693  31.4783653846154 23.4435096153845  25.0600961538461 23.4555288461538  C 18.6298076923076 23.4555288461538  13.3954326923076 18.2271634615385  13.3954326923076 11.796875  C 13.3954326923076 5.36658653846155  18.623798076923 0.138221153846189  25.0540865384615 0.138221153846189  C 31.484375 0.138221153846189  36.7127403846154 5.36658653846155  36.7127403846154 11.796875  Z " stroke-width="2" stroke="#8da5eb" fill="none" transform="matrix(1 0 0 1 410 127 )" mask="url(#clip42)" />
    <path d="M 34.2247596153846 11.7908653846155  C 34.2247596153846 6.74278846153845  30.1141826923076 2.63221153846155  25.0600961538461 2.63221153846155  C 20.0060096153846 2.63221153846155  15.8954326923076 6.74278846153845  15.8954326923076 11.796875  C 15.8954326923076 16.8509615384615  20.0060096153846 20.9615384615385  25.0600961538461 20.9615384615385  C 30.1021634615385 20.9495192307693  34.21875 16.8389423076923  34.2247596153846 11.7908653846155  Z " stroke-width="2" stroke="#8da5eb" fill="none" transform="matrix(1 0 0 1 410 127 )" mask="url(#clip42)" />
    <path d="M 47.8725961538461 48.5697115384615  C 47.7463942307692 48.6298076923077  47.608173076923 48.6538461538461  47.4639423076923 48.6538461538461  L 41.1057692307692 48.6538461538461  C 40.4146634615385 48.6538461538461  39.8557692307692 48.094951923077  39.8557692307692 47.4038461538462  C 39.8557692307692 46.7127403846155  40.4146634615385 46.1538461538462  41.1057692307692 46.1538461538462  L 47.1694711538461 46.1538461538462  C 47.2536057692308 46.1358173076923  47.34375 46.123798076923  47.4338942307692 46.123798076923  C 47.4038461538461 46.123798076923  47.4759615384615 46.0516826923077  47.5060096153846 45.889423076923  C 47.5240384615385 45.7872596153845  47.4939903846154 45.6430288461538  47.421875 45.5048076923077  L 36.5745192307692 25.78125  C 36.5504807692308 25.7391826923077  36.532451923077 25.7091346153845  36.5204326923076 25.6850961538462  C 29.4350961538461 30.3786057692307  20.6790865384615 30.3786057692307  13.6117788461539 25.6911057692307  C 13.5997596153846 25.703125  13.5877403846154 25.7211538461538  13.5817307692308 25.7451923076923  C 13.5697115384615 25.7692307692307  13.563701923077 25.7872596153845  13.5516826923076 25.811298076923  L 2.67427884615387 45.594951923077  C 2.63221153846149 45.6850961538462  2.60216346153851 45.8233173076923  2.62019230769238 45.9254807692307  C 2.64423076923077 46.0877403846155  2.71634615384613 46.1598557692307  2.734375 46.1658653846155  L 10.9194711538461 46.1538461538462  C 11.610576923077 46.1538461538462  12.1694711538461 46.7127403846155  12.1694711538461 47.4038461538461  C 12.1694711538461 48.094951923077  11.610576923077 48.6538461538461  10.9194711538461 48.6538461538461  L 2.68629807692304 48.6538461538461  C 1.43629807692304 48.6478365384615  0.378605769230774 47.6682692307693  0.162259615384642 46.328125  C 0.060096153846132 45.7091346153845  0.168269230769226 45.0600961538461  0.462740384615358 44.4471153846152  L 11.3461538461539 24.639423076923  C 11.688701923077 23.954326923077  12.2776442307692 23.4495192307693  12.96875 23.2572115384615  C 13.641826923077 23.0709134615385  14.344951923077 23.1850961538462  14.9399038461539 23.5757211538462  C 21.280048076923 27.8064903846155  28.8461538461539 27.8064903846155  35.1802884615385 23.5757211538462  C 35.7872596153846 23.155048076923  36.5564903846154 23.0408653846155  37.265625 23.2692307692307  C 37.920673076923 23.4795673076923  38.4615384615385 23.9603365384615  38.7860576923076 24.6213942307693  L 49.6274038461539 44.3509615384615  C 49.951923076923 45.0180288461539  50.0600961538461 45.673076923077  49.9579326923076 46.2860576923077  C 49.765625 47.469951923077  48.9182692307692 48.3713942307693  47.8725961538461 48.5697115384615  Z " stroke-width="2" stroke="#8da5eb" fill="none" transform="matrix(1 0 0 1 410 127 )" mask="url(#clip42)" />
    <path d="M 7.59014423076923 9.48317307692298  C 7.59014423076923 8.79807692307702  8.14903846153851 8.23918269230774  8.84014423076923 9  L 35.3064903846154 9  L 35.3064903846154 11  L 8.84014423076923 11  C 8.14903846153851 10.733173076923  7.59014423076923 10.1742788461538  7.59014423076923 9.48317307692298  Z " stroke-width="2" stroke="#8da5eb" fill="none" transform="matrix(1 0 0 1 410 127 )" mask="url(#clip42)" />
    <path d="M 33.9002403846154 38.2211538461538  C 33.9002403846154 39.6454326923077  32.782451923077 40.7992788461539  31.40625 40  L 20.7091346153846 40  C 19.3389423076924 40.7992788461539  18.2211538461539 39.6514423076923  18.2151442307692 38.2391826923077  L 18.1971153846154 34.8257211538462  C 18.1911057692308 34.1286057692307  18.467548076923 33.4555288461539  18.9483173076924 32.96875  C 19.4170673076924 32.5  20.0360576923076 32.235576923077  20.6911057692308 32  L 31.40625 32  C 32.782451923077 32.235576923077  33.9002403846154 33.389423076923  33.9002403846154 34.8076923076923  L 33.9002403846154 38.2211538461538  Z " stroke-width="2" stroke="#8da5eb" fill="none" transform="matrix(1 0 0 1 410 127 )" mask="url(#clip42)" />
    <path d="M 20.7091346153846 38.2271634615385  C 20.7091346153846 38.2692307692307  20.7211538461539 38.2932692307693  20.733173076923 38  L 31.3942307692308 38  C 31.3882211538461 38.2992788461538  31.40625 38.2752403846155  31.40625 38.2271634615385  L 31.40625 34.813701923077  C 31.40625 34.7536057692307  31.376201923077 34.7295673076923  31.376201923077 34  L 20.703125 34  C 20.7091346153846 34.7415865384615  20.6911057692308 34.765625  20.6911057692308 34.813701923077  L 20.7091346153846 38.2271634615385  Z " stroke-width="2" stroke="#8da5eb" fill="none" transform="matrix(1 0 0 1 410 127 )" mask="url(#clip42)" />
    <path d="M 37.0733173076924 47.295673076923  C 37.0733173076924 48.7079326923077  36.0396634615385 49.8677884615385  34.765625 49.8677884615385  L 17.3677884615385 49.8677884615385  C 16.0817307692308 49.8677884615385  15.0661057692308 48.7439903846152  15.0600961538461 47.313701923077  L 15.0240384615385 40.8954326923077  C 15.0180288461539 40.15625  15.2944711538461 39.453125  15.78125 38.9663461538462  C 16.201923076923 38.5396634615385  16.7548076923076 38.3052884615385  17.3317307692308 38  L 34.765625 38  C 36.0396634615385 38.3052884615385  37.0733173076924 39.4591346153845  37.0733173076924 40.8774038461538  L 37.0733173076924 47.295673076923  Z " stroke-width="2" stroke="#8da5eb" fill="none" transform="matrix(1 0 0 1 410 127 )" mask="url(#clip42)" />
    <path d="M 17.5540865384615 47.295673076923  C 17.5540865384615 47.3257211538462  17.5600961538461 47.3497596153845  17.5600961538461 47  L 34.5673076923076 47  C 34.5733173076924 47.34375  34.5733173076924 47.3197115384615  34.5733173076924 47.2896634615385  L 34.5733173076924 40.8774038461539  C 34.5733173076924 40.8473557692307  34.5673076923076 40.8233173076923  34.5673076923076 40  L 17.5240384615385 40  C 17.5180288461539 40.8233173076923  17.5180288461539 40.8473557692307  17.5180288461539 40.8774038461539  L 17.5540865384615 47.295673076923  Z " stroke-width="2" stroke="#8da5eb" fill="none" transform="matrix(1 0 0 1 410 127 )" mask="url(#clip42)" />
  </g>
</svg>