<?xml version="1.0" encoding="utf-8"?>
<svg version="1.1" xmlns:xlink="http://www.w3.org/1999/xlink" width="50px" height="50px" xmlns="http://www.w3.org/2000/svg">
  <g transform="matrix(1 0 0 1 -1530 -130 )">
    <path d="M 24.7455196908602 49.5842293682796  C 21.9283008416959 48.0446663208492  19.5083493991534 45.8701460675395  17.6774193548388 43.2329749327957  C 7.52688172043008 42.5304659946237  0.0573476478494968 39.3620071908602  0.0573476478494968 35.1326164650538  L 0.0573476478494968 40.4229390456989  C 0.0573476478494968 45.3548387096774  10.2795698924731 49.5842293682796  23.3118279569893 49.5842293682796  L 24.7455196908602 49.5842293682796  Z M 16.2724014112904 39.7060932123656  L 16.2437276209678 39.7060932123656  C 15.8389703820526 38.329987868706  15.6030689846403 36.9097652455307  15.5412186155914 35.4767024865591  C 15.4885983457722 34.7555499512293  15.6115847727156 34.0323898511974  15.8996415994624 33.3691756048387  C 6.73835127688176 32.6666666666666  0.0430107526881329 29.8422938844086  0.0430107526881329 25.9713261424731  L 0.0430107526881329 31.2616487231183  C 0.0573476478494968 35.1326164650538  6.75268817204301 38.6594981854839  16.2724014112904 39.7060932123656  Z M 16.6308243951613 30.5448028897849  L 16.6021505376344 30.5448028897849  C 17.4422712567452 28.3868849773001  18.7781126574163 26.4567906116828  20.5017921370968 24.9103942876344  C 8.87455201612909 24.5519713709677  0.0573477150537656 21.3835125672043  0.0573476478494968 16.4516129032258  L 0.0573476478494968 21.741935483871  C 0.0573476478494968 25.9713261424731  7.11111108870966 29.4982078629032  16.6308243951613 30.5448028897849  Z M 37.4193548387098 33.3691756048387  L 37.4193548387098 24.9103942876344  L 33.1899641801076 24.9103942876344  L 33.1899641801076 33.3691756048387  L 24.7311827956989 33.3691756048387  L 24.7311827956989 37.5985663306452  L 33.1899641801076 37.5985663306452  L 33.1899641801076 46.0573476478494  L 37.4193548387098 46.0573476478494  L 37.4193548387098 37.5985663306452  L 45.8781362231183 37.5985663306452  L 45.8781362231183 33.3691756048387  L 37.4193548387098 33.3691756048387  Z M 49.3620071908603 10.802867405914  C 49.4050179435484 4.83870967741933  38.4802867607527 0.236559139784958  24.7311827956989 0.236559139784958  C 10.9820788306452 0.236559139784958  0.0573476478494968 4.82437278225808  0.0573476478494968 10.802867405914  C 0.0573476478494968 16.7813620295699  10.9820788306452 21.3835125672043  24.7311827956989 21.3835125672043  L 25.433691733871 21.3835125672043  C 31.1599887391657 18.3067919113329  37.5715168399466 16.7285696056899  44.0716846102151 16.7956989247312  L 45.1326164650538 16.7956989247312  C 48 15.0322580645162  49.362007123656 12.9247311827957  49.3620071908603 10.802867405914  Z " fill-rule="nonzero" fill="#fadb89" stroke="none" transform="matrix(1 0 0 1 1530 130 )" />
  </g>
</svg>