<?xml version="1.0" encoding="utf-8"?>
<svg version="1.1" xmlns:xlink="http://www.w3.org/1999/xlink" width="50px" height="47px" xmlns="http://www.w3.org/2000/svg">
  <g transform="matrix(1 0 0 1 -690 -127 )">
    <path d="M 4.78837373210456 37.35408014838  L 4.78837373210456 32.512410734365  L 8.30007391178344 32.512410734365  C 10.9449927085144 32.512410734365  12.7694003825421 30.2357165942155  12.7694004289109 27.7327580826523  C 12.7694004289109 26.3034650901293  12.1746692169478 24.9483015359648  11.1714993102648 24.0480892598389  C 12.174669170579 23.1478769373443  12.7694004289109 21.7927133831797  12.7694004289109 20.3634203906567  C 12.7694004289109 17.8602196487568  10.9449927085144 15.5835255086072  8.29983168144668 15.5835255086072  L 4.7886160088101 15.5835255086072  L 4.7886160088101 11.2416241117487  L 16 15.9180769489364  L 16 25.9400855503391  C 15.1635872717789 26.8201908537646  15.8782337680403 27.5336261056048  16.7597926389612 27.5336261056048  C 17.6413514635136 27.5336261056048  18.3557557294384 26.8201909001333  18.3557556830697 25.9400855503391  L 18.3557556830697 17.357544542978  L 25 20.5952565698719  L 25 46.1173419115516  L 4.78837373210456 37.35408014838  Z M 21.6709886512491 15.3436949863792  L 40.8051033907146 6.09326234278097  L 47.2095472323654 8.79971339477194  L 27.1156258969454 17.8001408682548  L 21.6709886512491 15.3436949863792  Z M 36.8951392105721 4.47937253810929  L 17.8625284877992 13.6934671999073  L 7.05998057149486 8.81327954558628  L 27.0972146757085 0.331515863907725  L 36.8958659479511 4.47888803106707  Z M 28.669436967484 46.1166151741726  L 28 46.1168574045094  L 28 20.5916227438706  L 49 11.3031563670087  L 49 37.3516576131688  L 28.669436967484 46.1173419115516  Z M 1.27691582913121 21.9678623311888  C 0.571717197009207 21.9678623311888  0 21.2549115863908  0 20.3743217759231  C 0 19.4947009795398  0.571474920303672 18.7807812206573  1.27691582913121 18.7807812206573  L 8.29983168144668 18.7807812206573  C 9.00551482061098 18.7807812206573  9.57698974091466 19.4947009331711  9.57698974091466 20.3743217759231  C 9.57698974091466 21.254669356054  9.00551482061098 21.9678623311888  8.30007391178344 21.9678623311888  L 1.27715805946798 21.9678623311888  Z M 1.27691582913121 29.3231493653278  C 0.571717197009207 29.3231493653278  0 28.6097141134875  0 27.7293665797253  C 0 26.8499880136788  0.571474920303672 26.1358260244595  1.27691582913121 26.1358260244595  L 8.29983168144668 26.1358260244595  C 9.00551482061098 26.1358260244595  9.57698974091466 26.8497457369733  9.57698974091466 27.7293665797253  C 9.57698974091466 28.609956390193  9.00551482061098 29.3231493653278  8.30007391178344 29.3231493653278  L 1.27715805946798 29.3231493653278  Z " fill-rule="nonzero" fill="#a5dcf3" stroke="none" transform="matrix(1 0 0 1 690 127 )" />
  </g>
</svg>