<?xml version="1.0" encoding="utf-8"?>
<svg version="1.1" xmlns:xlink="http://www.w3.org/1999/xlink" width="50px" height="47px" xmlns="http://www.w3.org/2000/svg">
  <g transform="matrix(1 0 0 1 -970 -127 )">
    <path d="M 18.1518165442274 8.39909602977991  C 18.6096379093963 8.60968524317181  19.0864988765225 8.7761343520184  19.5759235953287 8.89618295007458  C 21.7707218500605 9.43335567531696  22.2207839503726 12.2676342703479  20.2944860465145 13.4214631624031  C 10.7122579115505 19.160786995248  2.23580161886571 35.1797972290621  6.19752945727532 38.0439537988825  C 13.2748821488758 43.1605999920694  39.3162047313679 42.6534772836974  43.6384754373444 37.1415357349971  C 46.8732681096542 33.0164827511804  38.513341657417 17.9387147442696  29.5686441505322 13.0777804312854  C 27.685872894755 12.0546461736736  27.8710475280259 9.36843846329879  29.8775170445531 8.59786198106553  C 30.0368753235343 8.53666164796741  30.1942401019639 8.4703917235164  30.3493711425867 8.39915337714038  C 31.916273126126 7.67961604569845  33.1591625119652 6.49545039997099  33.9390292935825 5.0515585588102  C 32.3384070609368 4.72433452013914  30.6436204591896 4.90262746374714  29.0936359475656 5.61436555416896  C 27.9747889066527 6.1281979037127  27.017087954154 6.87761320994352  26.2707120321923 7.8076727015611  C 25.2454558867569 9.08502780800387  23.2557318000574 9.08502780800387  22.2305330019847 7.8076727015611  C 21.4840423852975 6.87761320994352  20.5264561275242 6.12814055635218  19.4075517392494 5.61436555416896  C 17.8575672276247 4.90262746374714  16.1628379732401 4.72433452013854  14.5621583932318 5.0515585588102  C 15.3420251748503 6.49545039997099  16.584914560688 7.67961604569845  18.1518165442274 8.39915337714038  Z M 47.6201028105156 40.0868388198401  C 41.4287668683824 47.9769754059914  12.2895397676889 48.5440834533836  3.17434855231409 41.9584272751635  C -4.1003937607536 36.7025416908284  3.54767988170147 20.333253779446  13.9807134856035 11.7972712200185  C 11.3458889189851 9.97379720010446  9.51163353181914 7.25042840016459  8.83476261311671 4.16049527229197  C 8.59860617465029 3.08259428545958  9.12505496171207 1.98301599638145  10.1264546043788 1.46258870038756  C 13.652686572532 -0.369946202475944  17.8795312674331 -0.504139025905829  21.5801565647221 1.19408835880688  C 22.5355636227237 1.63250892937106  23.4216950669149 2.17690742202907  24.2252463092154 2.81329108083301  C 25.0287975515148 2.17690742202907  25.9149289957072 1.63250892937106  26.8703934010712 1.19408835880688  C 30.571018698359 -0.504139025905829  34.7978060458977 -0.369946202475944  38.3240380140521 1.46258870038756  C 39.3254376567186 1.98301599638145  39.851943791143 3.08265163282013  39.6157873526768 4.16049527229197  C 39.027001982658 6.84796462459607  37.5627517778603 9.25810214181206  35.4578168400481 11.0401140201276  C 45.1670120354222 18.5050199286154  52.6741832083983 33.6458700320107  47.6201028105156 40.0867814724797  Z M 35.9813982589894 33.5403508888009  C 29.074367233791 37.7634105116097  22.3104752252054 37.7634105116097  15.9469825010715 33.497741799994  C 15.0213960715316 32.8772433600316  14.7112041881735 31.5169066230324  15.2541690156149 30.4591919070751  C 15.797133843055 29.4014771911179  16.987607739637 29.0470131562375  17.9131941691767 29.6674542488389  C 23.0838044075072 33.1334713664783  28.409711303284 33.1334713664783  34.1481177769847 29.6249025073925  C 35.0943492569979 29.0463823352725  36.2716906075848 29.4539500259206  36.7779531230728 30.535119812298  C 37.2842156385611 31.6163469460354  36.9276297390027 32.961830716681  35.9813982589894 33.5403508888009  Z " fill-rule="nonzero" fill="#f19992" stroke="none" transform="matrix(1 0 0 1 970 127 )" />
  </g>
</svg>