<?xml version="1.0" encoding="utf-8"?>
<svg version="1.1" xmlns:xlink="http://www.w3.org/1999/xlink" width="14px" height="5px" xmlns="http://www.w3.org/2000/svg">
  <g>
    <path d="M 4.63750000000005 2.40625  C 4.63750000000005 1.09375  5.6875 0.0437499999999886  7 0.0437499999999886  C 8.3125 0.0437499999999886  9.36249999999995 1.09375  9.36249999999995 2.40625  C 9.36249999999995 3.71875  8.3125 4.76875000000001  7 4.76875000000001  C 5.6875 4.76875000000001  4.63750000000005 3.71875  4.63750000000005 2.40625  Z M 10.8499999999999 2.40625  C 10.8499999999999 1.53125  11.55 0.831250000000011  12.425 0.831250000000011  C 13.3 0.831250000000011  14 1.53125  14 2.40625  C 14 3.28125  13.3 3.98124999999999  12.425 3.98124999999999  C 11.55 3.98124999999999  10.8499999999999 3.28125  10.8499999999999 2.40625  Z M 0 2.40625  C 0 1.53125  0.700000000000045 0.831250000000011  1.57500000000005 0.831250000000011  C 2.45000000000005 0.831250000000011  3.15000000000009 1.53125  3.15000000000009 2.40625  C 3.15000000000009 3.28125  2.45000000000005 3.98124999999999  1.57500000000005 3.98124999999999  C 0.700000000000045 3.98124999999999  0 3.28125  0 2.40625  Z " fill-rule="nonzero" fill="#515151" stroke="none" />
  </g>
</svg>