<?xml version="1.0" encoding="utf-8"?>
<svg version="1.1" xmlns:xlink="http://www.w3.org/1999/xlink" width="14px" height="14px" xmlns="http://www.w3.org/2000/svg">
  <g transform="matrix(1 0 0 1 -363 -7 )">
    <path d="M 8.5859375 8.5859375  C 9.32351762820508 7.84835737179489  9.69230769230762 6.96073717948718  9.69230769230762 5.92307692307691  C 9.69230769230762 4.88541666666666  9.32351762820508 3.99779647435898  8.5859375 3.26021634615387  C 7.84835737179492 2.52263621794873  6.9607371794873 2.15384615384613  5.92307692307691 2.15384615384613  C 4.88541666666674 2.15384615384613  3.99779647435912 2.52263621794873  3.26021634615381 3.26021634615387  C 2.52263621794873 3.99779647435898  2.15384615384619 4.88541666666666  2.15384615384619 5.92307692307691  C 2.15384615384619 6.96073717948718  2.52263621794873 7.84835737179489  3.26021634615381 8.5859375  C 3.99779647435912 9.32351762820511  4.88541666666674 9.69230769230768  5.92307692307691 9.69230769230768  C 6.9607371794873 9.69230769230768  7.84835737179492 9.32351762820511  8.5859375 8.5859375  Z M 13.6887019230769 12.1658653846154  C 13.8962339743591 12.3733974358975  14 12.6258012820513  14 12.9230769230769  C 14 13.2147435897436  13.8934294871794 13.4671474358975  13.6802884615386 13.6802884615385  C 13.4671474358975 13.8934294871795  13.2147435897436 14  12.9230769230769 14  C 12.6201923076924 14  12.3677884615386 13.8934294871795  12.1658653846152 13.6802884615385  L 9.28004807692309 10.8028846153846  C 8.27604166666674 11.4983974358975  7.15705128205127 11.8461538461539  5.92307692307691 11.8461538461539  C 5.12099358974365 11.8461538461539  4.35396634615381 11.6905048076923  3.62199519230762 11.3792067307692  C 2.89002403846143 11.0679086538461  2.25901442307691 10.6472355769231  1.72896634615381 10.1171875  C 1.19891826923094 9.58713942307691  0.778245192307622 8.95612980769232  0.466947115384755 8.22415865384613  C 0.155649038461434 7.4921875  0 6.72516025641025  0 5.92307692307691  C 0 5.12099358974359  0.155649038461434 4.35396634615387  0.466947115384755 3.62199519230768  C 0.778245192307622 2.89002403846155  1.19891826923094 2.25901442307691  1.72896634615381 1.72896634615387  C 2.25901442307691 1.19891826923077  2.89002403846143 0.778245192307679  3.62199519230762 0.466947115384613  C 4.35396634615381 0.155649038461547  5.12099358974365 0  5.92307692307691 0  C 6.72516025641016 0  7.4921875 0.155649038461547  8.22415865384619 0.466947115384613  C 8.95612980769238 0.778245192307679  9.58713942307691 1.19891826923077  10.1171875 1.72896634615387  C 10.6472355769231 2.25901442307691  11.0679086538462 2.89002403846155  11.3792067307691 3.62199519230768  C 11.6905048076924 4.35396634615387  11.8461538461538 5.12099358974359  11.8461538461538 5.92307692307691  C 11.8461538461538 7.15705128205127  11.4983974358975 8.27604166666666  10.8028846153848 9.28004807692309  L 13.6887019230769 12.1658653846154  Z " fill-rule="nonzero" fill="#999999" stroke="none" transform="matrix(1 0 0 1 363 7 )" />
  </g>
</svg>