<?xml version="1.0" encoding="utf-8"?>
<svg version="1.1" xmlns:xlink="http://www.w3.org/1999/xlink" width="14px" height="12px" xmlns="http://www.w3.org/2000/svg">
  <g transform="matrix(1 0 0 1 -415 -10 )">
    <path d="M 13.0421328671329 0.745804195804169  C 13.0421328671329 1.12185314685314  12.7337412587412 1.43024475524476  12.3576923076923 1.43024475524476  L 0.715909090909065 1.43024475524476  C 0.33986013986015 1.43024475524476  0.0314685314685335 1.12185314685314  0.0314685314685335 0.745804195804169  C 0.0314685314685335 0.369755244755254  0.33986013986015 0.0613636363636374  0.715909090909065 0  L 12.3576923076923 0  C 12.7337412587412 0.0613636363636374  13.0421328671329 0.369755244755254  13.0421328671329 0.745804195804169  Z M 3.45524475524473 3.94143356643355  C 3.45524475524473 4.31748251748252  3.14685314685312 4.62587412587413  2.7708041958042 4.62587412587413  L 0.715909090909065 4.62587412587413  C 0.33986013986015 4.62587412587413  0.0314685314685335 4.31748251748252  0.0314685314685335 3.94143356643355  C 0.0314685314685335 3.56538461538463  0.33986013986015 3.25699300699301  0.715909090909065 3.25699300699301  L 2.7708041958042 3.25699300699301  C 3.14685314685312 3.25699300699301  3.45524475524473 3.56538461538463  3.45524475524473 3.94143356643355  Z M 3.45524475524473 7.13706293706292  C 3.45524475524473 7.51311188811189  3.14685314685312 7.82150349650351  2.7708041958042 7.82150349650351  L 0.715909090909065 7.82150349650351  C 0.33986013986015 7.82150349650351  0.0314685314685335 7.51311188811189  0.0314685314685335 7.13706293706292  C 0.0314685314685335 6.76101398601401  0.33986013986015 6.45262237762245  0.715909090909065 6.45262237762245  L 2.7708041958042 6.45262237762245  C 3.14685314685312 6.45262237762245  3.45524475524473 6.76101398601401  3.45524475524473 7.13706293706292  Z M 12.8910839160839 10.8173076923077  C 12.6251748251748 11.0832167832168  12.1893356643356 11.0832167832168  11.9234265734265 10.8173076923077  L 9.7442307692308 8.63811188811195  C 9.47832167832166 8.37220279720282  9.47832167832166 7.93636363636369  9.7442307692308 7.67045454545456  C 10.0101398601398 7.40454545454548  10.445979020979 7.40454545454548  10.7118881118881 7.67045454545456  L 12.8910839160839 9.8496503496504  C 13.1569930069929 10.1155594405595  13.1569930069929 10.5513986013987  12.8910839160839 10.8173076923077  Z M 6.53601398601398 10.3326923076923  C 6.53758741258741 10.7087412587413  6.2291958041958 11.0171328671329  5.8515734265734 11.0171328671329  L 0.715909090909065 11.0171328671329  C 0.33986013986015 11.0171328671329  0.0314685314685335 10.7087412587413  0.0314685314685335 10.3326923076923  C 0.0314685314685335 9.95664335664338  0.33986013986015 9.64825174825182  0.715909090909065 9.64825174825182  L 5.8515734265734 9.64825174825182  C 6.22762237762237 9.64825174825182  6.53601398601398 9.95664335664338  6.53601398601398 10.3326923076923  Z M 11.8305944055944 5.64860139860144  C 11.8305944055944 3.66293706293709  10.220979020979 2.05332167832171  8.23531468531468 2.05332167832171  C 6.25122377622375 2.05332167832171  4.64160839160837 3.66293706293709  4.64160839160837 5.64860139860144  C 4.64160839160837 7.63426573426574  6.25122377622375 9.24388111888118  8.23688811188811 9.24388111888118  C 10.2225524475525 9.24388111888118  11.8305944055944 7.63426573426574  11.8305944055944 5.64860139860144  Z M 10.7527972027972 5.64860139860144  C 10.7527972027972 7.03793706293709  9.62622377622375 8.16451048951052  8.23531468531468 8.16451048951052  C 6.84597902097903 8.16451048951052  5.7194055944056 7.03793706293709  5.7194055944056 5.64860139860144  C 5.7194055944056 4.25926573426574  6.84597902097903 3.13269230769231  8.23531468531468 3.13269230769231  C 9.62465034965038 3.13269230769231  10.7527972027972 4.25769230769231  10.7527972027972 5.64860139860144  Z " fill-rule="nonzero" fill="#666666" stroke="none" transform="matrix(1 0 0 1 415 10 )" />
  </g>
</svg>